<?xml version="1.0" encoding="UTF-8"?>
<!DOCTYPE svg PUBLIC "-//W3C//DTD SVG 1.1//EN" "http://www.w3.org/Graphics/SVG/1.1/DTD/svg11.dtd">
<!-- Creator: CorelDRAW X8 -->
<svg xmlns="http://www.w3.org/2000/svg" xml:space="preserve" width="210mm" height="297mm" version="1.1" style="shape-rendering:geometricPrecision; text-rendering:geometricPrecision; image-rendering:optimizeQuality; fill-rule:evenodd; clip-rule:evenodd"
viewBox="0 0 21000 29700"
 xmlns:xlink="http://www.w3.org/1999/xlink">
 <defs>
  <style type="text/css">
   <![CDATA[
    .fil1 {fill:#FEFEFE}
    .fil0 {fill:#444444}
   ]]>
  </style>
 </defs>
 <g id="Camada_x0020_1">
  <metadata id="CorelCorpID_0Corel-Layer"/>
  <g id="_958592411312">
   <rect class="fil0" transform="matrix(0.746998 0.772328 -0.746998 0.772328 10322.4 14493)" width="709" height="240"/>
   <rect class="fil1" transform="matrix(0.746998 0.772328 -0.703042 0.726881 10323.2 14509.3)" width="31.75" height="171.98"/>
   <rect class="fil1" transform="matrix(0.746998 0.772328 -0.703042 0.726881 10474.5 14665.7)" width="31.75" height="171.98"/>
   <rect class="fil1" transform="matrix(0.746998 0.772328 -0.703042 0.726881 10631.4 14827.9)" width="31.75" height="171.98"/>
   <rect class="fil1" transform="matrix(0.746998 0.772328 -0.703042 0.726881 10810.7 15013.3)" width="31.75" height="171.98"/>
   <rect class="fil1" transform="matrix(0.373617 0.386286 -0.351521 0.363441 10371.8 14559.5)" width="31.75" height="171.98"/>
   <rect class="fil1" transform="matrix(0.373617 0.386286 -0.351521 0.363441 10416.6 14605.9)" width="31.75" height="171.98"/>
   <rect class="fil1" transform="matrix(0.373617 0.386286 -0.351521 0.363441 10536.1 14729.4)" width="31.75" height="171.98"/>
   <rect class="fil1" transform="matrix(0.373617 0.386286 -0.351521 0.363441 10580.9 14775.8)" width="31.75" height="171.98"/>
   <rect class="fil1" transform="matrix(0.373617 0.386286 -0.351521 0.363441 10700.4 14899.3)" width="31.75" height="171.98"/>
   <rect class="fil1" transform="matrix(0.373617 0.386286 -0.351521 0.363441 10745.3 14945.7)" width="31.75" height="171.98"/>
  </g>
 </g>
</svg>
